<svg width="20" height="17" viewBox="0 0 20 17" fill="none" xmlns="http://www.w3.org/2000/svg">
<path fill-rule="evenodd" clip-rule="evenodd" d="M1.13281 0.942383C0.718599 0.942383 0.382812 1.27817 0.382812 1.69238C0.382812 2.1066 0.718599 2.44238 1.13281 2.44238H3.87397L4.80653 6.35306C4.81712 6.39746 4.83145 6.43999 4.84912 6.4804L5.60179 9.60996C5.68286 9.947 5.98434 10.1846 6.331 10.1846H17.3538C17.7041 10.1846 18.0078 9.94202 18.0852 9.60033L19.4414 3.61546C19.4918 3.39306 19.4383 3.15981 19.296 2.98163C19.1537 2.80346 18.938 2.69971 18.71 2.69971H5.47739L5.1957 1.51841C5.11516 1.18068 4.81335 0.942383 4.46615 0.942383H1.13281ZM6.92201 8.68458L5.84337 4.19971H17.771L16.7547 8.68458H6.92201Z" fill="#515461"/>
<path d="M15.9821 12.1738C15.5594 11.9987 15.0844 11.9987 14.6617 12.1738C14.239 12.3489 13.9031 12.6848 13.728 13.1075C13.5529 13.5303 13.5529 14.0052 13.728 14.428C13.9031 14.8507 14.239 15.1866 14.6617 15.3617C15.0844 15.5368 15.5594 15.5368 15.9821 15.3617C16.4049 15.1866 16.7407 14.8507 16.9158 14.428C17.0909 14.0052 17.0909 13.5303 16.9158 13.1075C16.7407 12.6848 16.4049 12.3489 15.9821 12.1738Z" stroke="#515461" stroke-width="1.5"/>
<path d="M9.04171 12.1738C8.61898 11.9987 8.14401 11.9987 7.72128 12.1738C7.29854 12.3489 6.96268 12.6848 6.78758 13.1075C6.61248 13.5303 6.61248 14.0052 6.78758 14.428C6.96268 14.8507 7.29854 15.1866 7.72128 15.3617C8.14401 15.5368 8.61898 15.5368 9.04171 15.3617C9.46444 15.1866 9.8003 14.8507 9.9754 14.428C10.1505 14.0052 10.1505 13.5303 9.9754 13.1075C9.8003 12.6848 9.46444 12.3489 9.04171 12.1738Z" stroke="#515461" stroke-width="1.5"/>
</svg>
