<svg width="58" height="66" viewBox="0 0 58 66" fill="none" xmlns="http://www.w3.org/2000/svg">
<rect x="27.8574" y="45.6079" width="24.3672" height="20.4441" rx="3" transform="rotate(-17.1408 27.8574 45.6079)" fill="#FF7449"/>
<path d="M27.8574 0.742676V5.44448" stroke="#2F3337" stroke-width="1.3" stroke-linecap="round" stroke-linejoin="round"/>
<path d="M1 26.9927H5.7018" stroke="#2F3337" stroke-width="1.3" stroke-linecap="round" stroke-linejoin="round"/>
<path d="M48.8809 26.9927H53.5827" stroke="#2F3337" stroke-width="1.3" stroke-linecap="round" stroke-linejoin="round"/>
<path d="M6.70898 8.98291L10.0337 12.3076" stroke="#2F3337" stroke-width="1.3" stroke-linecap="round" stroke-linejoin="round"/>
<path d="M49.5625 8.98291L46.2378 12.3076" stroke="#2F3337" stroke-width="1.3" stroke-linecap="round" stroke-linejoin="round"/>
<path d="M6.70898 45.4927L10.0337 42.168" stroke="#2F3337" stroke-width="1.3" stroke-linecap="round" stroke-linejoin="round"/>
<path d="M49.5625 45.4927L46.2378 42.168" stroke="#2F3337" stroke-width="1.3" stroke-linecap="round" stroke-linejoin="round"/>
<path d="M21.6973 54.645H34.0166" stroke="#2F3337" stroke-width="1.3" stroke-linecap="round" stroke-linejoin="round"/>
<path d="M23.4668 57.4907L32.2478 57.4587" stroke="#2F3337" stroke-width="1.3" stroke-linecap="round" stroke-linejoin="round"/>
<path d="M24.3027 60.1528L31.4131 60.1471" stroke="#2F3337" stroke-width="1.3" stroke-linecap="round" stroke-linejoin="round"/>
<path d="M37.9419 42.6601C36.1423 44.2409 35.3621 46.0526 35.0369 47.7886C34.6218 50.0046 32.985 51.8928 30.7305 51.8928H24.882C22.6148 51.8928 20.9012 49.97 20.3278 47.7764C19.8724 46.0341 19.0025 44.3383 17.5246 42.6601C14.7726 39.5353 10.6393 35.3755 10.8983 29.5425C10.8983 20.1858 18.4841 12.3071 27.8531 12.3071C37.2222 12.3071 44.8268 20.1858 44.8268 29.5425C44.8268 33.5465 42.7544 37.1594 40.4639 39.9452" stroke="#2F3337" stroke-width="1.3" stroke-linecap="round" stroke-linejoin="round"/>
<path d="M29.391 50.8304C29.3463 45.348 30.5228 36.4202 32.6958 31.7538C33.1957 30.6801 34.6216 29.4318 35.8216 30.2248C37.6119 31.4079 34.5817 35.8654 30.656 34.9014C27.2285 34.0598 25.7342 30.739 25.6114 28.9951C25.5464 28.0723 26.2219 26.0219 27.9018 26.022C29.44 26.022 30.1813 27.8333 30.1813 28.9951C30.1813 31.146 27.8933 34.3194 25.2278 34.4338C23.1453 34.5232 21.87 34.5628 20.3497 33.2845C19.7056 32.7429 18.6081 30.8769 19.675 29.7571C20.373 29.0246 22.813 29.4908 23.4779 31.9763C23.7628 33.0414 27.0694 45.9737 26.8751 50.8304" stroke="#2F3337" stroke-width="1.3" stroke-linecap="round" stroke-linejoin="round"/>
</svg>
