<svg width="59" height="56" viewBox="0 0 59 56" fill="none" xmlns="http://www.w3.org/2000/svg">
<rect width="26.3416" height="22.4408" rx="3" transform="matrix(0.996932 -0.0782781 0.0759093 0.997115 30.9531 2.06201)" fill="#FF7449"/>
<path d="M21.5781 32.8335L19.0334 35.7581" stroke="#2F3337" stroke-width="1.3" stroke-linecap="round" stroke-linejoin="round"/>
<path d="M12.5312 25.8394L9.98656 28.7639" stroke="#2F3337" stroke-width="1.3" stroke-linecap="round" stroke-linejoin="round"/>
<path d="M16.9893 27.8354H21.5779" stroke="#2F3337" stroke-width="1.3" stroke-linecap="round" stroke-linejoin="round"/>
<path d="M16.9893 43.5464H21.5779" stroke="#2F3337" stroke-width="1.3" stroke-linecap="round" stroke-linejoin="round"/>
<path d="M7.94238 43.5464H12.5311" stroke="#2F3337" stroke-width="1.3" stroke-linecap="round" stroke-linejoin="round"/>
<path d="M7.94238 35.7593H12.5311" stroke="#2F3337" stroke-width="1.3" stroke-linecap="round" stroke-linejoin="round"/>
<path d="M8.80469 6.33545V12.9415" stroke="#2F3337" stroke-width="1.3" stroke-linecap="round" stroke-linejoin="round"/>
<path d="M16.3242 6.33545V12.9415" stroke="#2F3337" stroke-width="1.3" stroke-linecap="round" stroke-linejoin="round"/>
<path d="M23.6455 6.33545V12.9415" stroke="#2F3337" stroke-width="1.3" stroke-linecap="round" stroke-linejoin="round"/>
<path d="M30.9531 6.33545V12.9415" stroke="#2F3337" stroke-width="1.3" stroke-linecap="round" stroke-linejoin="round"/>
<path d="M38.6113 6.33545V12.9415" stroke="#2F3337" stroke-width="1.3" stroke-linecap="round" stroke-linejoin="round"/>
<path d="M29.0029 31.6187L29.0494 49.2121" stroke="#2F3337" stroke-width="1.3"/>
<path d="M51.9678 31.5762L51.9655 49.1442" stroke="#2F3337" stroke-width="1.3"/>
<path d="M51.8702 32.012C51.8702 33.0917 50.8668 34.2856 48.732 35.2467C46.658 36.1804 43.7472 36.7748 40.4974 36.7748C37.2476 36.7748 34.3368 36.1804 32.2628 35.2467C30.128 34.2856 29.1246 33.0917 29.1246 32.012C29.1246 30.9322 30.128 29.7384 32.2628 28.7772C34.3368 27.8435 37.2476 27.2491 40.4974 27.2491C43.7472 27.2491 46.658 27.8435 48.732 28.7772C50.8668 29.7384 51.8702 30.9322 51.8702 32.012Z" stroke="#2F3337" stroke-width="1.3"/>
<path d="M51.9654 37.0664C51.9654 40.0558 46.8353 42.4792 40.5071 42.4792C34.1789 42.4792 29.0488 40.0558 29.0488 37.0664" stroke="#2F3337" stroke-width="1.3"/>
<path d="M51.9654 43.2427C51.9654 46.2321 46.8353 48.6555 40.5071 48.6555C37.3015 48.6555 34.4034 48.0337 32.3238 47.0314C30.2979 46.0551 29.0488 44.7178 29.0488 43.2427" stroke="#2F3337" stroke-width="1.3"/>
<path d="M51.9654 49.0317C51.9654 52.0212 46.8353 54.4446 40.5071 54.4446C34.1789 54.4446 29.0488 52.0212 29.0488 49.0317" stroke="#2F3337" stroke-width="1.3"/>
<path d="M45.1988 27.2389V14.3608C45.1988 11.5994 42.9603 9.36084 40.1988 9.36084H6C3.23858 9.36084 1 11.5994 1 14.3608V47.1756C1 49.9371 3.23858 52.1756 6.00001 52.1756H22.0679" stroke="#2F3337" stroke-width="1.3" stroke-linecap="round" stroke-linejoin="round"/>
<path d="M17.457 34.0854L19.0329 35.7576" stroke="#2F3337" stroke-width="1.3" stroke-linecap="round" stroke-linejoin="round"/>
<path d="M8.41016 27.0913L9.98605 28.7635" stroke="#2F3337" stroke-width="1.3" stroke-linecap="round" stroke-linejoin="round"/>
<path d="M7.94238 18.8452H37.8746" stroke="#2F3337" stroke-width="1.3" stroke-linecap="round" stroke-linejoin="round"/>
</svg>
