<svg width="57" height="67" viewBox="0 0 57 67" fill="none" xmlns="http://www.w3.org/2000/svg">
<rect x="0.392578" y="18.5874" width="28.6095" height="24.0034" rx="3" transform="rotate(-17.1408 0.392578 18.5874)" fill="#FF7449"/>
<path d="M2 55.9945L15.0694 45.139C16.0424 44.3445 18.6784 42.9939 21.4382 43.9473C23.6357 44.7063 31.5592 45.9452 35.6796 46.7695C36.9774 47.0291 37.7047 48.2805 37.3989 49.5681V49.5681C37.0987 50.832 35.9105 51.6794 34.6177 51.5515L19.9903 50.1045M37.9535 48.7211L52.3148 43.1683C53.6635 42.6468 55.1803 43.311 55.7118 44.6558V44.6558C56.2179 45.9366 55.6512 47.3909 54.4119 47.9916L33.7475 58.0071C33.329 58.2099 32.877 58.3348 32.4137 58.3756L19.5807 59.5056L14.0079 65.464" stroke="#2F3337" stroke-width="1.3" stroke-linecap="round" stroke-linejoin="round"/>
<path d="M46.3325 15.3102C47.6088 18.4506 47.7567 21.9365 46.751 25.1738C45.7453 28.4111 43.6483 31.1995 40.8171 33.064C37.986 34.9284 34.596 35.7535 31.2247 35.3987C27.8534 35.0439 24.7094 33.5311 22.3285 31.1182C19.9475 28.7052 18.4769 25.5413 18.1672 22.1655C17.8575 18.7898 18.7278 15.4111 20.6299 12.6052C22.5321 9.79919 25.3483 7.73958 28.5987 6.77724C31.8492 5.8149 35.3327 6.00938 38.4559 7.32754M46.3325 15.3102L45.5272 18.8483M46.3325 15.3102L49.2162 17.8841" stroke="#2F3337" stroke-width="1.3" stroke-linecap="round" stroke-linejoin="round"/>
<path d="M33.3918 28.9249C30.0624 26.3272 24.2046 20.8147 25.1829 17.2922C26.089 14.0299 29.1544 13.4978 31.1966 14.7658C32.0915 15.3215 32.8309 16.3636 33.3899 17.0517" stroke="#2F3337" stroke-width="1.3" stroke-linecap="round" stroke-linejoin="round"/>
<path d="M33.3924 28.9234C36.7217 26.3257 42.5796 20.8132 41.6012 17.2906C40.6951 14.0283 37.8597 13.4074 35.5876 14.7643C34.7593 15.259 33.8731 16.265 33.4 17.0392" stroke="#2F3337" stroke-width="1.3" stroke-linecap="round" stroke-linejoin="round"/>
</svg>
