<svg width="61" height="60" viewBox="0 0 61 60" fill="none" xmlns="http://www.w3.org/2000/svg">
<path d="M11.0586 46.2511L17.0849 39.885L18.3687 35.1545C19.1682 32.2089 20.7459 29.5328 22.9363 27.4072L29.2652 21.2656C29.6528 20.8895 30.2736 20.9047 30.6422 21.2994V21.2994C31.6995 22.4317 31.6778 24.1958 30.5929 25.3016L26.3598 29.6164L37.0454 18.7855C37.8962 17.9231 39.2874 17.9214 40.1403 18.7817V18.7817C40.9895 19.6382 40.9802 21.022 40.1195 21.867L32.9738 28.8827L42.8421 19.2327C43.6091 18.4827 44.8369 18.4895 45.5955 19.2481V19.2481C46.366 20.0187 46.3591 21.2701 45.5802 22.0322L35.5651 31.8295L44.1415 23.4651C44.9587 22.6681 46.2625 22.6684 47.0793 23.4659V23.4659C47.9273 24.2939 47.924 25.6589 47.0719 26.4828L37.9079 35.3433L44.4118 29.0442C45.1712 28.3087 46.3836 28.3304 47.1162 29.0926V29.0926C47.8374 29.8429 47.8248 31.0325 47.0878 31.7673L38.0156 40.8135C36.6229 42.2022 35.0806 43.4325 33.417 44.4818L30.6675 46.2161C29.558 46.9159 28.5299 47.7372 27.6023 48.6648L26.8326 49.4344L23.9855 53.2536" stroke="white" stroke-width="1.3" stroke-linecap="round"/>
<path d="M18.304 36.0885L14.0194 31.7952C13.2702 31.0445 13.2588 29.8326 13.9938 29.068V29.068C14.7212 28.3111 15.9175 28.2665 16.6993 28.967L19.8944 31.8298L14.0698 26.4634C13.1938 25.6562 13.1738 24.2795 14.0261 23.4473V23.4473C14.8325 22.66 16.1194 22.6587 16.9274 23.4443L22.1789 28.5507L15.5052 22.0301C14.7268 21.2694 14.7195 20.0195 15.4891 19.2499V19.2499C16.2479 18.4911 17.4766 18.4859 18.2417 19.2383L24.6918 25.5809L20.9729 21.8901C20.1074 21.0312 20.1017 19.6333 20.9602 18.7673V18.7673C21.8112 17.909 23.1939 17.894 24.0632 18.7337L27.9358 22.474M42.6699 36.0885L43.4004 39.212L49.0586 45.3704M30.4727 46.2753V46.2753C31.544 46.9346 32.5151 47.7444 33.356 48.6799L37.264 53.0273" stroke="white" stroke-width="1.3" stroke-linecap="round"/>
<path d="M35.9957 14.0623L38.373 10.4221" stroke="white" stroke-width="1.3" stroke-linecap="round"/>
<path d="M26.5448 14.1398L24.1211 10.4996" stroke="white" stroke-width="1.3" stroke-linecap="round"/>
<path d="M31.2461 5.74963L31.2461 12.8746" stroke="white" stroke-width="1.3" stroke-linecap="round"/>
</svg>
