<svg width="105" height="24" viewBox="0 0 105 24" fill="none" xmlns="http://www.w3.org/2000/svg">
<path d="M9.82326 6.5717H9.84474H12.1H12.1215C12.5081 6.5717 12.7874 6.29247 12.7874 5.90585V1.07308C12.7874 0.686455 12.5081 0.407227 12.1215 0.407227H12.1H9.84474H9.82326C9.43664 0.407227 9.15741 0.686455 9.15741 1.07308V5.90585C9.13593 6.31395 9.41516 6.5717 9.82326 6.5717Z" fill="#B8195B"/>
<path d="M6.79102 9.14912L6.8125 9.12764L8.20864 7.36636L8.23011 7.34489C8.46638 7.04418 8.42343 6.65756 8.12272 6.39981L4.34242 3.39275C4.04171 3.15648 3.65509 3.19944 3.39734 3.50014L3.37586 3.52162L1.97973 5.2829L1.95825 5.30438C1.72198 5.60509 1.76494 5.99171 2.06564 6.24946L5.84595 9.25652C6.16813 9.49279 6.55475 9.44983 6.79102 9.14912Z" fill="#8401FF"/>
<path d="M6.92087 13.1014V13.0799L6.42685 10.8891V10.8676C6.34094 10.481 6.01875 10.2876 5.63213 10.3736L0.928228 11.4475C0.541606 11.5334 0.348298 11.8556 0.434214 12.2422V12.2637L0.928228 14.4546V14.476C1.01414 14.8627 1.33633 15.056 1.72295 14.9701L6.42685 13.8961C6.81348 13.8102 7.00679 13.488 6.92087 13.1014Z" fill="#0047CB"/>
<path d="M10.1023 15.465L10.0808 15.4436L8.06178 14.477L8.0403 14.4555C7.67516 14.2837 7.31001 14.4126 7.15966 14.7777L5.0762 19.1165C4.90436 19.4816 5.03324 19.8468 5.39838 19.9971L5.41986 20.0186L7.43889 20.9851L7.46037 21.0066C7.82551 21.1784 8.19065 21.0496 8.341 20.6844L10.4245 16.3457C10.5748 16.002 10.4459 15.6369 10.1023 15.465Z" fill="#19B9EB"/>
<path d="M13.9206 14.478L13.8992 14.4995L11.8801 15.466L11.8587 15.4875C11.4935 15.6593 11.3861 16.0245 11.5365 16.3896L13.6414 20.7284C13.8133 21.0935 14.1784 21.2009 14.5435 21.0506L14.565 21.0291L16.584 20.0625L16.6055 20.0411C16.9707 19.8692 17.0781 19.5041 16.9277 19.1389L14.8228 14.8002C14.6295 14.435 14.2643 14.3062 13.9206 14.478Z" fill="#38DEC2"/>
<path d="M15.5103 10.845V10.8665L15.0162 13.0574V13.0788C14.9303 13.4655 15.1236 13.7876 15.5103 13.8736L20.2142 14.9475C20.6008 15.0334 20.923 14.8401 21.0089 14.4535V14.432L21.5029 12.2412V12.2197C21.5888 11.8331 21.3955 11.5109 21.0089 11.425L16.305 10.351C15.9398 10.2651 15.6177 10.4584 15.5103 10.845Z" fill="#FBC41B"/>
<path d="M13.6868 7.34489L13.7082 7.36636L15.1044 9.12764L15.1259 9.14912C15.3621 9.44983 15.7487 9.49279 16.0709 9.25652L19.8512 6.24946C20.1519 6.01319 20.1949 5.62656 19.9586 5.30438L19.9372 5.2829L18.541 3.52162L18.5195 3.50014C18.2833 3.19944 17.8966 3.15648 17.5745 3.39275L13.7942 6.39981C13.4935 6.65756 13.4505 7.0227 13.6868 7.34489Z" fill="#F9831B"/>
<path d="M71.2382 0.407227H73.9661C74.0735 0.407227 74.1379 0.450184 74.1164 0.557579V3.34985C74.1164 3.43577 74.052 3.5002 73.9661 3.5002H71.2382C71.1523 3.5002 71.0879 3.43577 71.0879 3.34985V0.557579C71.0879 0.471663 71.1523 0.407227 71.2382 0.407227Z" fill="#303337"/>
<path d="M27.4394 0.407227H30.1673C30.2532 0.407227 30.3176 0.450184 30.3176 0.557579V3.34985C30.3176 3.43577 30.2532 3.5002 30.1673 3.5002H27.4394C27.3535 3.5002 27.2891 3.43577 27.2891 3.34985V0.557579C27.2891 0.471663 27.3535 0.407227 27.4394 0.407227Z" fill="#303337"/>
<path d="M38.9046 10.3225C38.241 10.2538 37.6231 10.1898 37.1463 10.0944C36.2441 9.92258 35.9649 9.57891 35.9649 9.04194C35.9649 8.22574 36.7167 7.66728 38.1558 7.66728C39.6378 7.66728 40.9695 8.20426 41.9576 9.04194C42.022 9.10638 42.1079 9.10638 42.1723 9.02046L43.7833 7.13031C43.8477 7.06587 43.8477 6.97996 43.7618 6.91552C42.9456 6.18523 41.3132 5.15424 38.5209 5.15424C35.385 5.15424 33.28 6.63629 33.28 9.25673C33.28 11.1684 34.311 12.0705 35.6857 12.543C36.5965 12.8466 37.4992 12.9231 38.3688 12.9967C38.9143 13.0429 39.4467 13.088 39.96 13.1874C40.9695 13.3592 41.2917 13.7673 41.2917 14.4117C41.2917 15.2923 40.497 15.8293 38.929 15.8293C37.1033 15.8293 35.7072 15.2494 34.6117 14.1969C34.5473 14.1325 34.4399 14.111 34.3755 14.1969L32.8075 16.0871C32.8037 16.0985 32.7992 16.11 32.7947 16.1214C32.7741 16.1738 32.7546 16.2236 32.8075 16.2589C33.6022 17.0751 35.2991 18.3209 38.6713 18.3209C42.5805 18.3209 44.1269 16.4307 44.1269 14.1539C44.041 11.7483 42.4086 10.8677 40.991 10.5884C40.3162 10.4687 39.5863 10.3931 38.9046 10.3225Z" fill="#303337"/>
<path d="M30.1024 5.46068H27.5249C27.439 5.46068 27.3745 5.52512 27.3745 5.61103V17.9339C27.3745 18.0198 27.439 18.0842 27.5249 18.0842H30.1024C30.1883 18.0842 30.2527 18.0198 30.2527 17.9339V5.61103C30.2527 5.52512 30.2097 5.46068 30.1024 5.46068Z" fill="#303337"/>
<path fill-rule="evenodd" clip-rule="evenodd" d="M53.551 5.0398C51.7682 5.0398 50.4151 5.64121 49.4915 6.62924V5.49026C49.4915 5.40434 49.427 5.33991 49.3411 5.33991H46.8925C46.8066 5.33991 46.7422 5.40434 46.7422 5.49026V23.1251C46.7422 23.211 46.8066 23.2755 46.8925 23.2755H49.47C49.5559 23.2755 49.6203 23.211 49.6203 23.1251V16.7459C50.5439 17.648 51.8327 18.1635 53.5725 18.1635C57.3313 18.1635 59.8229 15.2853 59.8229 11.5694C59.8014 7.93946 57.3313 5.0398 53.551 5.0398ZM53.0785 15.5001C50.6299 15.5001 49.3841 13.7603 49.3841 11.6124C49.3841 9.48595 50.6299 7.76763 53.0785 7.76763C55.3767 7.76763 56.7514 9.50742 56.7514 11.6124C56.7514 13.7603 55.3767 15.5001 53.0785 15.5001Z" fill="#303337"/>
<path d="M68.2082 5.2293C68.8096 5.2293 69.3895 5.35817 69.8191 5.50852C69.905 5.53 69.905 5.59444 69.905 5.72331L69.1962 8.36523C69.1747 8.45115 69.1103 8.47263 69.0244 8.45115C68.5733 8.30079 68.1008 8.21488 67.7142 8.21488C65.8884 8.21488 64.793 9.71841 64.793 11.4582V17.9449C64.793 18.0308 64.7286 18.0952 64.6426 18.0952H62.0652C61.9792 18.0952 61.9148 18.0308 61.9148 17.9449V5.62481C61.9148 5.5389 61.9792 5.47446 62.0652 5.47446H64.5138C64.5997 5.47446 64.6641 5.5389 64.6641 5.62481V7.20537C65.5877 5.68036 67.0053 5.2293 68.2082 5.2293Z" fill="#303337"/>
<path fill-rule="evenodd" clip-rule="evenodd" d="M103.846 5.46094H101.397C101.311 5.46094 101.247 5.52537 101.247 5.61129V6.62924C100.302 5.64121 98.9701 5.0398 97.1873 5.0398C93.4285 5.0398 90.9369 7.91798 90.9369 11.5909C90.9369 15.2853 93.4285 18.1849 97.1873 18.1849C98.9056 18.1849 100.216 17.648 101.139 16.7673V17.9702C101.139 20.1825 99.4426 21.0417 97.8961 21.0417C96.4355 21.0417 95.0824 20.3328 94.3521 18.9152C94.3306 18.8293 94.2017 18.7864 94.1373 18.8293L91.7316 19.9247C91.6672 19.9462 91.6457 20.0536 91.6672 20.0966C92.333 21.6645 94.1588 23.6191 97.8961 23.6191C101.934 23.6191 104.018 21.1061 104.018 17.9702V5.61129C103.996 5.52537 103.932 5.46094 103.846 5.46094ZM97.6598 15.5001C95.3616 15.5001 93.9869 13.7603 93.9869 11.6124C93.9869 9.48595 95.3616 7.76763 97.6598 7.76763C100.108 7.76763 101.354 9.50743 101.354 11.6124C101.354 13.7603 100.108 15.5001 97.6598 15.5001Z" fill="#303337"/>
<path d="M71.3026 5.45765H73.8801C73.966 5.45765 74.0305 5.52208 74.0305 5.608V17.9341C74.0305 18.0201 73.966 18.0845 73.8801 18.0845H71.3026C71.2167 18.0845 71.1523 18.0201 71.1523 17.9341V5.608C71.1523 5.52208 71.2167 5.45765 71.3026 5.45765Z" fill="#303337"/>
<path d="M84.3694 5.46094C82.787 5.46094 81.5212 5.96463 80.614 6.84609V5.60785C80.614 5.5239 80.5507 5.46094 80.4663 5.46094H78.0612C77.9768 5.46094 77.9135 5.5239 77.9135 5.60785V17.9483C77.9135 18.0323 77.9768 18.0952 78.0612 18.0952H80.5929C80.6773 18.0952 80.7406 18.0323 80.7406 17.9483V11.0435C80.7406 9.38554 81.6267 8.10532 83.4622 8.10532C85.0023 8.10532 86.0361 8.98678 86.0361 10.8337V17.9483C86.0361 18.0323 86.0994 18.0952 86.1838 18.0952H88.7155C88.7999 18.0952 88.8632 18.0323 88.8632 17.9483V10.1411C88.8421 7.58065 87.7028 5.46094 84.3694 5.46094Z" fill="#303337"/>
</svg>
