<svg width="122" height="28" viewBox="0 0 122 28" fill="none" xmlns="http://www.w3.org/2000/svg">
<path d="M11.3473 7.66278H11.3722H13.9928H14.0177C14.467 7.66278 14.7914 7.33833 14.7914 6.8891V1.27368C14.7914 0.824448 14.467 0.5 14.0177 0.5H13.9928H11.3722H11.3473C10.8981 0.5 10.5736 0.824448 10.5736 1.27368V6.8891C10.5487 7.36329 10.8731 7.66278 11.3473 7.66278Z" fill="#B8195B"/>
<path d="M7.8238 10.6577L7.84876 10.6328L9.47099 8.58625L9.49595 8.56129C9.77048 8.21189 9.72056 7.76265 9.37116 7.46316L4.97866 3.96913C4.62926 3.6946 4.18002 3.74451 3.88053 4.09392L3.85558 4.11887L2.23335 6.16538L2.20839 6.19034C1.93385 6.53974 1.98377 6.98898 2.33317 7.28847L6.72568 10.7825C7.10004 11.057 7.54927 11.0071 7.8238 10.6577Z" fill="#8401FF"/>
<path d="M7.97461 15.2501V15.2252L7.40059 12.6795V12.6546C7.30076 12.2053 6.9264 11.9807 6.47717 12.0805L1.01149 13.3284C0.562261 13.4282 0.337648 13.8026 0.437477 14.2518V14.2768L1.01149 16.8225V16.8474C1.11132 17.2966 1.48569 17.5213 1.93492 17.4214L7.40059 16.1736C7.84983 16.0737 8.07444 15.6994 7.97461 15.2501Z" fill="#0047CB"/>
<path d="M11.6716 17.9962L11.6466 17.9713L9.30062 16.8482L9.27566 16.8232C8.85139 16.6236 8.42711 16.7733 8.25241 17.1976L5.83154 22.239C5.63188 22.6633 5.78163 23.0876 6.2059 23.2623L6.23086 23.2872L8.57686 24.4103L8.60181 24.4353C9.02609 24.6349 9.45036 24.4852 9.62507 24.0609L12.0459 19.0195C12.2206 18.6202 12.0709 18.1959 11.6716 17.9962Z" fill="#19B9EB"/>
<path d="M16.1084 16.8496L16.0835 16.8746L13.7375 17.9976L13.7125 18.0226C13.2882 18.2223 13.1634 18.6465 13.3382 19.0708L15.784 24.1122C15.9836 24.5365 16.4079 24.6613 16.8322 24.4866L16.8571 24.4616L19.2031 23.3385L19.2281 23.3136C19.6524 23.1139 19.7772 22.6896 19.6025 22.2654L17.1566 17.224C16.932 16.7997 16.5077 16.6499 16.1084 16.8496Z" fill="#38DEC2"/>
<path d="M17.9558 12.6282V12.6532L17.3818 15.1988V15.2238C17.282 15.673 17.5066 16.0474 17.9558 16.1472L23.4215 17.3951C23.8707 17.4949 24.2451 17.2703 24.3449 16.821V16.7961L24.919 14.2504V14.2255C25.0188 13.7762 24.7942 13.4019 24.3449 13.302L18.8793 12.0542C18.455 11.9543 18.0806 12.179 17.9558 12.6282Z" fill="#FBC41B"/>
<path d="M15.8363 8.56129L15.8613 8.58625L17.4835 10.6328L17.5085 10.6577C17.783 11.0071 18.2322 11.057 18.6066 10.7825L22.9991 7.28847C23.3485 7.01393 23.3984 6.5647 23.1239 6.19034L23.0989 6.16538L21.4767 4.11887L21.4517 4.09392C21.1772 3.74451 20.728 3.6946 20.3536 3.96913L15.9611 7.46316C15.6117 7.76265 15.5618 8.18693 15.8363 8.56129Z" fill="#F9831B"/>
<path d="M82.7081 0.5H85.8777C86.0025 0.5 86.0774 0.549914 86.0524 0.674701V3.91916C86.0524 4.01899 85.9775 4.09387 85.8777 4.09387H82.7081C82.6083 4.09387 82.5334 4.01899 82.5334 3.91916V0.674701C82.5334 0.574871 82.6083 0.5 82.7081 0.5Z" fill="#2F3337"/>
<path d="M31.8163 0.5H34.9859C35.0857 0.5 35.1606 0.549914 35.1606 0.674701V3.91916C35.1606 4.01899 35.0857 4.09387 34.9859 4.09387H31.8163C31.7165 4.09387 31.6416 4.01899 31.6416 3.91916V0.674701C31.6416 0.574871 31.7165 0.5 31.8163 0.5Z" fill="#2F3337"/>
<path d="M45.1382 12.021C44.3671 11.9411 43.6491 11.8668 43.0951 11.756C42.0469 11.5563 41.7225 11.157 41.7225 10.5331C41.7225 9.58468 42.596 8.93578 44.2681 8.93578C45.9902 8.93578 47.5375 9.55972 48.6856 10.5331C48.7605 10.6079 48.8603 10.6079 48.9352 10.5081L50.807 8.31185C50.8818 8.23698 50.8818 8.13715 50.782 8.06228C49.8336 7.21372 47.9369 6.01577 44.6924 6.01577C41.0486 6.01577 38.6028 7.73783 38.6028 10.7826C38.6028 13.0038 39.8007 14.0521 41.398 14.6011C42.4563 14.9539 43.5052 15.0427 44.5157 15.1283C45.1495 15.182 45.7681 15.2344 46.3645 15.3498C47.5375 15.5495 47.9119 16.0237 47.9119 16.7724C47.9119 17.7957 46.9885 18.4196 45.1666 18.4196C43.0452 18.4196 41.423 17.7457 40.1501 16.5228C40.0753 16.448 39.9505 16.423 39.8756 16.5228L38.0537 18.7191C38.0493 18.7324 38.044 18.7458 38.0388 18.759C38.0149 18.8199 37.9922 18.8777 38.0537 18.9187C38.9772 19.8671 40.9488 21.3147 44.8671 21.3147C49.4093 21.3147 51.2063 19.1184 51.2063 16.4729C51.1065 13.6777 49.2097 12.6544 47.5625 12.33C46.7784 12.1909 45.9303 12.103 45.1382 12.021Z" fill="#2F3337"/>
<path d="M34.9105 6.37184H31.9156C31.8158 6.37184 31.7409 6.44671 31.7409 6.54654V20.865C31.7409 20.9648 31.8158 21.0397 31.9156 21.0397H34.9105C35.0103 21.0397 35.0852 20.9648 35.0852 20.865V6.54654C35.0852 6.44671 35.0353 6.37184 34.9105 6.37184Z" fill="#2F3337"/>
<path fill-rule="evenodd" clip-rule="evenodd" d="M62.1565 5.88279C60.0851 5.88279 58.5127 6.5816 57.4396 7.72964V6.4062C57.4396 6.30637 57.3647 6.23151 57.2649 6.23151H54.4197C54.3199 6.23151 54.245 6.30637 54.245 6.4062V26.8969C54.245 26.9968 54.3199 27.0716 54.4197 27.0716H57.4146C57.5144 27.0716 57.5893 26.9968 57.5893 26.8969V19.4846C58.6625 20.5328 60.1599 21.1318 62.1815 21.1318C66.549 21.1318 69.4441 17.7875 69.4441 13.4698C69.4191 9.25204 66.549 5.88279 62.1565 5.88279ZM61.6075 18.037C58.7623 18.037 57.3148 16.0155 57.3148 13.5198C57.3148 11.049 58.7623 9.05238 61.6075 9.05238C64.2779 9.05238 65.8752 11.0739 65.8752 13.5198C65.8752 16.0155 64.2779 18.037 61.6075 18.037Z" fill="#2F3337"/>
<path d="M79.1873 6.10298C79.8861 6.10298 80.56 6.25272 81.0591 6.42742C81.159 6.45238 81.159 6.52725 81.159 6.677L80.3354 9.74676C80.3104 9.84659 80.2355 9.87155 80.1357 9.84659C79.6116 9.67189 79.0625 9.57206 78.6133 9.57206C76.4919 9.57206 75.2191 11.3191 75.2191 13.3406V20.8778C75.2191 20.9776 75.1442 21.0525 75.0444 21.0525H72.0495C71.9497 21.0525 71.8748 20.9776 71.8748 20.8778V6.56255C71.8748 6.46272 71.9497 6.38785 72.0495 6.38785H74.8946C74.9945 6.38785 75.0694 6.46272 75.0694 6.56255V8.39906C76.1425 6.62709 77.7897 6.10298 79.1873 6.10298Z" fill="#2F3337"/>
<path fill-rule="evenodd" clip-rule="evenodd" d="M120.596 6.37213H117.751C117.651 6.37213 117.576 6.447 117.576 6.54683V7.72964C116.478 6.5816 114.931 5.88279 112.859 5.88279C108.492 5.88279 105.597 9.22708 105.597 13.4948C105.597 17.7875 108.492 21.1567 112.859 21.1567C114.856 21.1567 116.378 20.5328 117.452 19.5095V20.9071C117.452 23.4778 115.48 24.4761 113.683 24.4761C111.986 24.4761 110.414 23.6525 109.565 22.0053C109.54 21.9054 109.39 21.8555 109.316 21.9054L106.52 23.1783C106.445 23.2032 106.42 23.328 106.445 23.3779C107.219 25.1998 109.34 27.471 113.683 27.471C118.375 27.471 120.796 24.5509 120.796 20.9071V6.54683C120.771 6.447 120.696 6.37213 120.596 6.37213ZM113.409 18.037C110.738 18.037 109.141 16.0155 109.141 13.5198C109.141 11.049 110.738 9.05238 113.409 9.05238C116.254 9.05238 117.701 11.0739 117.701 13.5198C117.701 16.0155 116.254 18.037 113.409 18.037Z" fill="#2F3337"/>
<path d="M82.7829 6.36831H85.7778C85.8777 6.36831 85.9525 6.44318 85.9525 6.54301V20.8653C85.9525 20.9651 85.8777 21.04 85.7778 21.04H82.7829C82.6831 21.04 82.6082 20.9651 82.6082 20.8653V6.54301C82.6082 6.44318 82.6831 6.36831 82.7829 6.36831Z" fill="#2F3337"/>
<path d="M97.9658 6.37213C96.1272 6.37213 94.6563 6.95739 93.6022 7.9816V6.54283C93.6022 6.44529 93.5286 6.37213 93.4306 6.37213H90.636C90.5379 6.37213 90.4644 6.44529 90.4644 6.54283V20.8818C90.4644 20.9793 90.5379 21.0525 90.636 21.0525H93.5777C93.6757 21.0525 93.7493 20.9793 93.7493 20.8818V12.8588C93.7493 10.9323 94.7789 9.44476 96.9116 9.44476C98.7012 9.44476 99.9024 10.469 99.9024 12.6149V20.8818C99.9024 20.9793 99.9759 21.0525 100.074 21.0525H103.016C103.114 21.0525 103.187 20.9793 103.187 20.8818V11.8102C103.163 8.83512 101.839 6.37213 97.9658 6.37213Z" fill="#2F3337"/>
</svg>
