<svg width="15" height="15" viewBox="0 0 15 15" fill="none" xmlns="http://www.w3.org/2000/svg">
<path fill-rule="evenodd" clip-rule="evenodd" d="M6.57117 11.0174C4.02447 11.0174 1.95996 8.95283 1.95996 6.40613C1.95996 3.85943 4.02447 1.79492 6.57117 1.79492C9.11787 1.79492 11.1824 3.85943 11.1824 6.40613C11.1824 8.95283 9.11787 11.0174 6.57117 11.0174ZM0.459961 6.40613C0.459961 9.78127 3.19604 12.5174 6.57117 12.5174C7.98837 12.5174 9.29289 12.035 10.3295 11.2254L13.0246 13.9205C13.3175 14.2134 13.7924 14.2134 14.0852 13.9205C14.3781 13.6276 14.3781 13.1528 14.0852 12.8599L11.3902 10.1648C12.1999 9.12811 12.6824 7.82347 12.6824 6.40613C12.6824 3.03101 9.9463 0.294922 6.57117 0.294922C3.19604 0.294922 0.459961 3.03101 0.459961 6.40613Z" fill="#515461"/>
</svg>
