<svg width="55" height="55" viewBox="0 0 55 55" fill="none" xmlns="http://www.w3.org/2000/svg">
<path fill-rule="evenodd" clip-rule="evenodd" d="M52.7458 27.5003L52.7496 27.7528L52.7609 28.0056L52.7798 28.2589L52.806 28.5131L52.8396 28.7684L52.8803 29.025L52.9279 29.2832L52.9823 29.5433L53.0431 29.8055L53.11 30.0699L53.1828 30.3369L53.2609 30.6066L53.344 30.8791L53.4316 31.1547L53.5231 31.4334L53.618 31.7153L53.7157 32.0005L53.8155 32.289L53.9167 32.5809L54.0185 32.876L54.1201 33.1743L54.2207 33.4757L54.3194 33.78L54.4152 34.087L54.5072 34.3965L54.5945 34.7082L54.6759 35.0216L54.7506 35.3365L54.8174 35.6523L54.8753 35.9686L54.9234 36.2849L54.9606 36.6006L54.986 36.9151L54.9988 37.2278L54.9979 37.538L54.9828 37.8451L54.9527 38.1484L54.9071 38.4472L54.8453 38.741L54.7672 39.0289L54.6723 39.3105L54.5606 39.5851L54.4322 39.8522L54.287 40.1113L54.1254 40.3621L53.9478 40.6041L53.7547 40.8371L53.5467 41.0608L53.3247 41.2751L53.0893 41.4801L52.8416 41.6756L52.5826 41.8619L52.3134 42.0392L52.035 42.2076L51.7488 42.3676L51.4557 42.5196L51.1571 42.6641L50.8542 42.8016L50.5482 42.9326L50.2401 43.058L49.9313 43.1783L49.6228 43.2943L49.3156 43.4067L49.0108 43.5164L48.7094 43.6241L48.4123 43.7308L48.1204 43.8372L47.8344 43.9443L47.5552 44.0529L47.2834 44.164L47.0197 44.2784L46.7648 44.3973L46.5193 44.5214L46.2836 44.6518L46.0583 44.7895L45.8439 44.9357L45.6408 45.0913L45.4496 45.2575L45.2706 45.4356L45.1034 45.6259L44.947 45.828L44.8002 46.0415L44.6618 46.266L44.5308 46.5009L44.4062 46.7457L44.287 46.9998L44.1723 47.2628L44.0609 47.534L43.9522 47.8126L43.845 48.0981L43.7386 48.3896L43.632 48.6863L43.5243 48.9874L43.4148 49.292L43.3027 49.599L43.187 49.9075L43.0671 50.2163L42.9421 50.5245L42.8115 50.8307L42.6746 51.1339L42.5307 51.4329L42.3793 51.7264L42.22 52.0133L42.0522 52.2923L41.8757 52.5623L41.6901 52.8222L41.4953 53.0708L41.2911 53.3072L41.0775 53.5304L40.8545 53.7395L40.6223 53.9338L40.381 54.1126L40.131 54.2755L39.8725 54.422L39.606 54.5518L39.3319 54.6648L39.0509 54.761L38.7635 54.8405L38.4702 54.9036L38.1717 54.9505L37.8688 54.9818L37.562 54.9981L37.252 55L36.9395 54.9883L36.6251 54.9639L36.3095 54.9276L35.9932 54.8803L35.6769 54.8231L35.361 54.757L35.046 54.6829L34.7324 54.602L34.4207 54.5152L34.111 54.4235L33.8038 54.3279L33.4992 54.2294L33.1976 54.1289L32.899 54.0274L32.6036 53.9256L32.3116 53.8243L32.0228 53.7244L31.7373 53.6265L31.4551 53.5313L31.1762 53.4395L30.9004 53.3516L30.6276 53.2681L30.3577 53.1896L30.0905 53.1164L29.8259 53.049L29.5635 52.9877L29.3033 52.9328L29.0449 52.8846L28.7882 52.8433L28.5328 52.8092L28.2786 52.7824L28.0252 52.7629L27.7724 52.751L27.5199 52.7466L27.2674 52.7498L27.0146 52.7605L26.7613 52.7788L26.5073 52.8044L26.2521 52.8374L25.9956 52.8776L25.7375 52.9247L25.4776 52.9785L25.2156 53.0388L24.9513 53.1053L24.6846 53.1776L24.4151 53.2553L24.1428 53.338L23.8675 53.4252L23.589 53.5165L23.3074 53.6111L23.0225 53.7086L22.7342 53.8083L22.4426 53.9094L22.1478 54.0112L21.8497 54.1128L21.5486 54.2135L21.2445 54.3124L20.9377 54.4085L20.6284 54.5009L20.3169 54.5885L20.0036 54.6705L19.6888 54.7457L19.373 54.8132L19.0567 54.8718L18.7404 54.9207L18.4247 54.9589L18.11 54.9853L17.7972 54.999L17.4868 54.9993L17.1794 54.9854L16.8758 54.9565L16.5766 54.9121L16.2824 54.8517L15.994 54.7748L15.7119 54.6813L15.4367 54.571L15.169 54.4438L14.9092 54.3L14.6578 54.1397L14.4151 53.9633L14.1814 53.7714L13.9569 53.5646L13.7418 53.3436L13.5361 53.1093L13.3398 52.8626L13.1528 52.6044L12.9748 52.336L12.8057 52.0583L12.645 51.7726L12.4924 51.48L12.3474 51.1819L12.2094 50.8792L12.0778 50.5734L11.952 50.2655L11.8314 49.9567L11.7151 49.6481L11.6024 49.3407L11.4925 49.0357L11.3846 48.734L11.2779 48.4365L11.1715 48.1441L11.0645 47.8577L10.9561 47.5779L10.8452 47.3055L10.7311 47.0412L10.6126 46.7855L10.489 46.5392L10.3591 46.3027L10.222 46.0766L10.0765 45.8613L9.92173 45.6573L9.75637 45.4651L9.5793 45.2851L9.38998 45.117L9.18877 44.9598L8.97613 44.8122L8.75254 44.6732L8.51848 44.5417L8.27445 44.4166L8.02101 44.2971L7.75871 44.182L7.4882 44.0704L7.21011 43.9615L6.92516 43.8542L6.63411 43.7477L6.33776 43.6412L6.03698 43.5337L5.73267 43.4243L5.42582 43.3124L5.11743 43.197L4.80857 43.0775L4.50034 42.953L4.19389 42.8228L3.8904 42.6864L3.59104 42.5431L3.29704 42.3924L3.0096 42.2337L2.72991 42.0666L2.45914 41.8908L2.19844 41.7059L1.94889 41.5118L1.71151 41.3084L1.48726 41.0955L1.27699 40.8733L1.08148 40.6418L0.901369 40.4012L0.737207 40.1518L0.589404 39.894L0.458248 39.6281L0.343892 39.3547L0.246362 39.0742L0.165549 38.7872L0.10122 38.4944L0.0530216 38.1963L0.0204842 37.8937L0.00303362 37.5872L0 37.2774L0.0106284 36.9651L0.0340905 36.6508L0.0694962 36.3353L0.115906 36.019L0.172341 35.7027L0.237799 35.3867L0.311258 35.0717L0.391694 34.758L0.478085 34.446L0.569422 34.1362L0.664715 33.8287L0.763001 33.524L0.863348 33.2221L0.964862 32.9233L1.06669 32.6276L1.16801 32.3353L1.26807 32.0462L1.36614 31.7605L1.46154 31.4781L1.55366 31.1989L1.6419 30.9228L1.72574 30.6498L1.8047 30.3797L1.87832 30.1123L1.94621 29.8474L2.00801 29.5849L2.06342 29.3245L2.11215 29.066L2.15396 28.8091L2.18866 28.5537L2.21609 28.2994L2.23612 28.0459L2.24866 27.7931L2.25365 27.5405L2.25107 27.288L2.24093 27.0353L2.22328 26.7821L2.1982 26.5281L2.1658 26.273L2.12623 26.0166L2.07968 25.7587L2.02637 25.4989L1.96657 25.2371L1.90058 24.973L1.82875 24.7064L1.75144 24.4372L1.66911 24.1651L1.58221 23.89L1.49127 23.6118L1.39685 23.3304L1.29956 23.0458L1.20006 22.7578L1.09906 22.4665L0.997303 22.1719L0.895599 21.8741L0.794784 21.5731L0.695742 21.2693L0.599393 20.9627L0.50669 20.6536L0.418615 20.3422L0.336171 20.029L0.260378 19.7144L0.192261 19.3987L0.132842 19.0824L0.0831308 18.766L0.044116 18.4502L0.0167503 18.1355L0.00194083 17.8225L0.000536997 17.5118L0.0133183 17.2042L0.040983 16.9002L0.084137 16.6006L0.143283 16.3061L0.218814 16.0172L0.311002 15.7346L0.419995 15.4588L0.54581 15.1905L0.688335 14.93L0.847325 14.6779L1.02241 14.4345L1.21308 14.2001L1.41872 13.9749L1.63861 13.759L1.87191 13.5526L2.11769 13.3555L2.37495 13.1677L2.64264 12.9891L2.91961 12.8193L3.20471 12.6579L3.49676 12.5047L3.79454 12.3591L4.09684 12.2205L4.40248 12.0885L4.71027 11.9622L5.01905 11.8412L5.3277 11.7246L5.63516 11.6116L5.94038 11.5016L6.24239 11.3936L6.54025 11.2868L6.83308 11.1804L7.12005 11.0735L7.4004 10.9652L7.67341 10.8545L7.93839 10.7407L8.19472 10.6226L8.4418 10.4994L8.6791 10.3701L8.90608 10.2336L9.12226 10.0888L9.32715 9.93479L9.52031 9.77032L9.7013 9.59422L9.87026 9.40585L10.0283 9.20557L10.1766 8.99383L10.3163 8.77109L10.4483 8.53784L10.5739 8.29459L10.6939 8.04187L10.8093 7.78026L10.9211 7.51037L11.0302 7.23285L11.1375 6.94842L11.244 6.65782L11.3506 6.36186L11.458 6.0614L11.5671 5.75734L11.6788 5.45065L11.7939 5.14234L11.9131 4.83347L12.0372 4.52515L12.1668 4.21851L12.3027 3.91474L12.4454 3.61501L12.5956 3.32053L12.7536 3.03252L12.92 2.75216L13.0951 2.48064L13.2792 2.2191L13.4726 1.96861L13.6753 1.73023L13.8874 1.5049L14.1089 1.29348L14.3396 1.09677L14.5795 0.915412L14.8282 0.749961L15.0854 0.600842L15.3506 0.468352L15.6235 0.352655L15.9034 0.253785L16.1899 0.171647L16.4823 0.106017L16.78 0.0565491L17.0822 0.0227839L17.3885 0.00415511L17.698 0L18.0102 0.00957003L18.3243 0.0320422L18.6397 0.0665311L18.9559 0.1121L19.2723 0.167775L19.5883 0.232551L19.9034 0.305412L20.2173 0.385331L20.5294 0.471285L20.8394 0.562266L21.147 0.65728L21.452 0.755363L21.7541 0.855581L22.0532 0.957035L22.3491 1.05887L22.6417 1.16026L22.931 1.26045L23.217 1.3587L23.4997 1.45434L23.7791 1.54674L24.0554 1.63531L24.3287 1.71953L24.599 1.79889L24.8666 1.87295L25.1317 1.94131L25.3944 2.00361L25.6549 2.05954L25.9136 2.10881L26.1706 2.15118L26.4261 2.18646L26.6805 2.21447L26.934 2.23509L27.1869 2.24823L27.4395 2.25382L27.6919 2.25185L27.9446 2.24231L28.1978 2.22525L28.4518 2.20076L28.7067 2.16893L28.963 2.12993L29.2208 2.08392L29.4804 2.03115L29.7421 1.97185L30.006 1.90634L30.2723 1.83496L30.5414 1.75808L30.8132 1.67612L31.088 1.58957L31.3659 1.49893L31.6471 1.40476L31.9315 1.30768L32.2192 1.20833L32.5103 1.10742L32.8046 1.00569L33.1021 0.903955L33.4028 0.803037L33.7064 0.703819L34.0128 0.60722L34.3218 0.51419L34.6329 0.425709L34.946 0.342779L35.2605 0.266418L35.5762 0.197651L35.8924 0.137502L36.2088 0.0869807L36.5247 0.0470782L36.8395 0.0187507L37.1527 0.00290923L37.4635 0.000408294L37.7714 0.0120334L38.0757 0.0384897L38.3757 0.0803907L38.6706 0.138248L38.96 0.212464L39.2432 0.303319L39.5195 0.410972L39.7884 0.535451L40.0495 0.676654L40.3023 0.834347L40.5464 1.00816L40.7816 1.19762L41.0075 1.4021L41.2241 1.62088L41.4313 1.85314L41.6291 2.09797L41.8176 2.35436L41.997 2.62126L42.1675 2.89754L42.3295 3.18204L42.4833 3.47358L42.6295 3.77095L42.7686 4.07294L42.9012 4.37836L43.0278 4.68602L43.1493 4.99477L43.2662 5.30348L43.3794 5.61107L43.4897 5.91651L43.5978 6.21881L43.7047 6.51703L43.8111 6.8103L43.9179 7.09777L44.0261 7.37868L44.1365 7.6523L44.25 7.91794L44.3677 8.17499L44.4905 8.42283L44.6193 8.66093L44.7552 8.88875L44.8992 9.10581L45.0525 9.31162L45.2161 9.50573L45.3912 9.6877L45.5786 9.85758L45.778 10.0165L45.9888 10.1655L46.2107 10.3058L46.4431 10.4384L46.6856 10.5645L46.9376 10.6849L47.1985 10.8006L47.4677 10.9127L47.7447 11.022L48.0286 11.1294L48.3187 11.236L48.6143 11.3424L48.9144 11.4497L49.2182 11.5587L49.5247 11.6702L49.8329 11.785L50.1418 11.9038L50.4502 12.0275L50.757 12.1566L51.0611 12.292L51.3612 12.4342L51.6561 12.5837L51.9447 12.7411L52.2257 12.9069L52.4979 13.0813L52.7603 13.2646L53.0117 13.4572L53.2511 13.6592L53.4775 13.8705L53.69 14.0913L53.888 14.3213L54.0705 14.5605L54.2373 14.8085L54.3877 15.065L54.5215 15.3296L54.6386 15.6019L54.7388 15.8813L54.8222 16.1673L54.8892 16.4592L54.9399 16.7565L54.9749 17.0585L54.9947 17.3644L55 17.6737L54.9915 17.9857L54.97 18.2997L54.9365 18.615L54.8917 18.9312L54.8368 19.2476L54.7727 19.5636L54.7005 19.8789L54.6211 20.1928L54.5356 20.5051L54.445 20.8153L54.3502 21.1231L54.2524 21.4283L54.1523 21.7307L54.0509 22.03L53.9491 22.3261L53.8476 22.619L53.7473 22.9086L53.6489 23.1948L53.553 23.4778L53.4603 23.7575L53.3714 24.034L53.2868 24.3075L53.2071 24.5781L53.1326 24.8459L53.0638 25.1112L53.001 25.3741L52.9445 25.6348L52.8947 25.8936L52.8518 26.1507L52.8159 26.4063L52.7873 26.6608L52.7661 26.9144L52.7524 27.1673L52.7462 27.4199L52.7458 27.5003Z" fill="white"/>
<path d="M27.8134 31.7082C26.7574 32.8228 25.4008 33.3802 23.7434 33.3802C22.0861 33.3802 20.7294 32.8228 19.6734 31.7082C18.6174 30.5788 18.0894 29.1342 18.0894 27.3742V23.2822C18.0894 21.5222 18.6174 20.0848 19.6734 18.9702C20.7294 17.8408 22.0861 17.2762 23.7434 17.2762C25.4008 17.2762 26.7574 17.8408 27.8134 18.9702C28.8841 20.0848 29.4194 21.5222 29.4194 23.2822V27.3742C29.4194 29.1342 28.8841 30.5788 27.8134 31.7082ZM23.7434 31.0042C24.7261 31.0042 25.5108 30.6815 26.0974 30.0362C26.6988 29.3908 26.9994 28.5035 26.9994 27.3742V23.2822C26.9994 22.1528 26.6988 21.2655 26.0974 20.6202C25.5108 19.9748 24.7261 19.6522 23.7434 19.6522C22.7754 19.6522 21.9908 19.9748 21.3894 20.6202C20.8028 21.2655 20.5094 22.1528 20.5094 23.2822V27.3742C20.5094 28.5035 20.8028 29.3908 21.3894 30.0362C21.9908 30.6815 22.7754 31.0042 23.7434 31.0042ZM33.8849 33.1602V19.9382H30.7389L32.5869 17.5402H36.3049V33.1602H33.8849Z" fill="#2C3442"/>
</svg>
